<?xml version="1.0" encoding="iso-8859-1"?>
<!-- Generator: Adobe Illustrator 19.0.0, SVG Export Plug-In . SVG Version: 6.00 Build 0)  -->
<svg xmlns="http://www.w3.org/2000/svg" xmlns:xlink="http://www.w3.org/1999/xlink" version="1.1" id="Capa_1" x="0px" y="0px" viewBox="0 0 512 512" style="enable-background:new 0 0 512 512;" xml:space="preserve" width="512" height="512">
<g>
	<g>
		<path style="fill:#CCF49F;" d="M117.841,81.27h316.952c4.488,0,8.127,3.639,8.127,8.127v414.476c0,4.488-3.639,8.127-8.127,8.127    H117.841c-4.488,0-8.127-3.639-8.127-8.127V89.397C109.714,84.908,113.353,81.27,117.841,81.27z"/>
	</g>
	<g>
		<path style="fill:#B3E59F;" d="M117.841,81.27c-4.489,0-8.127,3.638-8.127,8.127v406.349h220.823    c8.683,0,16.847-3.381,22.986-9.521l63.621-63.619c6.14-6.14,9.522-14.304,9.522-22.987V81.27H117.841z"/>
	</g>
	<g>
		<path style="fill:#ECEAEC;" d="M402.286,48.762H85.333c-4.488,0-8.127,3.639-8.127,8.127v414.476c0,4.488,3.639,8.127,8.127,8.127    h245.205c4.311,0,8.445-1.712,11.493-4.76l63.621-63.62c3.048-3.048,4.761-7.183,4.761-11.494V56.889    C410.413,52.4,406.774,48.762,402.286,48.762z"/>
	</g>
	<g>
		<path style="fill:#DAD8DB;" d="M77.206,48.762v422.603c0,4.488,3.639,8.127,8.127,8.127h8.127v-162.54    c0-17.954,14.554-32.508,32.508-32.508h162.54c13.465,0,24.381-10.916,24.381-24.381V48.762H77.206z"/>
	</g>
	<g>
		<path style="fill:#FFE07D;" d="M288.508,268.19H77.206c-4.488,0-8.127-3.639-8.127-8.127V48.762c0-4.488,3.639-8.127,8.127-8.127    h211.302c4.488,0,8.127,3.639,8.127,8.127v211.302C296.635,264.552,292.996,268.19,288.508,268.19z"/>
	</g>
	<g>
		<path style="fill:#FFD064;" d="M166.603,251.937c-44.884,0-81.27-36.386-81.27-81.27V40.635h-8.127    c-4.488,0-8.127,3.639-8.127,8.127v211.302c0,4.488,3.639,8.127,8.127,8.127h211.302c4.488,0,8.127-3.639,8.127-8.127v-8.127    H166.603z"/>
	</g>
	<g>
		<path style="fill:#6F6571;" d="M247.873,121.905h-40.635c-4.492,0-8.127-3.635-8.127-8.127s3.635-8.127,8.127-8.127h40.635    c4.492,0,8.127,3.635,8.127,8.127S252.365,121.905,247.873,121.905z"/>
	</g>
	<g>
		<path style="fill:#6F6571;" d="M247.873,162.54h-40.635c-4.492,0-8.127-3.635-8.127-8.127c0-4.492,3.635-8.127,8.127-8.127h40.635    c4.492,0,8.127,3.635,8.127,8.127C256,158.905,252.365,162.54,247.873,162.54z"/>
	</g>
	<g>
		<path style="fill:#6F6571;" d="M247.873,203.175H117.841c-4.492,0-8.127-3.635-8.127-8.127s3.635-8.127,8.127-8.127h130.032    c4.492,0,8.127,3.635,8.127,8.127S252.365,203.175,247.873,203.175z"/>
	</g>
	<g>
		<path style="fill:#FFD064;" d="M361.651,203.175h-16.254c-4.492,0-8.127-3.635-8.127-8.127s3.635-8.127,8.127-8.127h16.254    c4.492,0,8.127,3.635,8.127,8.127S366.143,203.175,361.651,203.175z"/>
	</g>
	<g>
		<path style="fill:#FFD064;" d="M361.651,121.905h-16.254c-4.492,0-8.127-3.635-8.127-8.127s3.635-8.127,8.127-8.127h16.254    c4.492,0,8.127,3.635,8.127,8.127S366.143,121.905,361.651,121.905z"/>
	</g>
	<g>
		<path style="fill:#FFD064;" d="M361.651,162.54h-16.254c-4.492,0-8.127-3.635-8.127-8.127c0-4.492,3.635-8.127,8.127-8.127h16.254    c4.492,0,8.127,3.635,8.127,8.127C369.778,158.905,366.143,162.54,361.651,162.54z"/>
	</g>
	<g>
		<path style="fill:#FFD064;" d="M361.651,243.81h-16.254c-4.492,0-8.127-3.635-8.127-8.127s3.635-8.127,8.127-8.127h16.254    c4.492,0,8.127,3.635,8.127,8.127S366.143,243.81,361.651,243.81z"/>
	</g>
	<g>
		<path style="fill:#B3E59F;" d="M142.222,316.952h-16.254c-4.492,0-8.127-3.635-8.127-8.127s3.635-8.127,8.127-8.127h16.254    c4.492,0,8.127,3.635,8.127,8.127S146.714,316.952,142.222,316.952z"/>
	</g>
	<g>
		<path style="fill:#B3E59F;" d="M142.222,398.222h-16.254c-4.492,0-8.127-3.635-8.127-8.127s3.635-8.127,8.127-8.127h16.254    c4.492,0,8.127,3.635,8.127,8.127S146.714,398.222,142.222,398.222z"/>
	</g>
	<g>
		<path style="fill:#B3E59F;" d="M142.222,357.587h-16.254c-4.492,0-8.127-3.635-8.127-8.127s3.635-8.127,8.127-8.127h16.254    c4.492,0,8.127,3.635,8.127,8.127S146.714,357.587,142.222,357.587z"/>
	</g>
	<g>
		<path style="fill:#6F6571;" d="M361.651,316.952H182.857c-4.492,0-8.127-3.635-8.127-8.127s3.635-8.127,8.127-8.127h178.794    c4.492,0,8.127,3.635,8.127,8.127S366.143,316.952,361.651,316.952z"/>
	</g>
	<g>
		<path style="fill:#6F6571;" d="M296.635,398.222H182.857c-4.492,0-8.127-3.635-8.127-8.127s3.635-8.127,8.127-8.127h113.778    c4.492,0,8.127,3.635,8.127,8.127S301.127,398.222,296.635,398.222z"/>
	</g>
	<g>
		<path style="fill:#6F6571;" d="M361.651,357.587H182.857c-4.492,0-8.127-3.635-8.127-8.127s3.635-8.127,8.127-8.127h178.794    c4.492,0,8.127,3.635,8.127,8.127S366.143,357.587,361.651,357.587z"/>
	</g>
	<g>
		<path style="fill:#FFFFFF;" d="M342.031,474.732l63.621-63.62c1.385-1.385,2.452-3.015,3.25-4.763h-63.505    c-4.489,0-8.127,3.638-8.127,8.127v63.505C339.017,477.184,340.646,476.116,342.031,474.732z"/>
	</g>
	<g>
		<path style="fill:#B3E59F;" d="M150.349,65.016c-13.444,0-24.381,10.937-24.381,24.381v16.254c0,4.492,3.635,8.127,8.127,8.127    c4.492,0,8.127-3.635,8.127-8.127V89.397c0-4.484,3.643-8.127,8.127-8.127c4.484,0,8.127,3.643,8.127,8.127v32.508    c0,13.444-10.937,24.381-24.381,24.381s-24.381-10.937-24.381-24.381v-81.27c0-13.444,10.937-24.381,24.381-24.381    s24.381,10.937,24.381,24.381h16.254C174.73,18.23,156.5,0,134.095,0S93.46,18.23,93.46,40.635v81.27    c0,22.405,18.23,40.635,40.635,40.635s40.635-18.23,40.635-40.635V89.397C174.73,75.952,163.794,65.016,150.349,65.016z"/>
	</g>
	<path style="fill:#95D6A4;" d="M152.255,24.381c3.899,4.323,6.221,9.987,6.221,16.254h16.254c0-5.785-1.212-11.267-3.401-16.254   H152.255z"/>
</g>















</svg>
